<svg xmlns="http://www.w3.org/2000/svg" viewBox="0 0 250 250" xmlns:bx="https://boxy-svg.com">
  <ellipse style="fill: rgb(9, 22, 30); stroke-width: 1; transform-box: fill-box; transform-origin: 50% 50%;" cx="125" cy="125" rx="87" ry="87"></ellipse>
  <path style="stroke: rgb(0, 0, 0); stroke-width: 4.962px; fill: rgb(201, 201, 201);" transform="matrix(0.540673, 0, 0, 0.540673, -193.456696, -140.470688)" d="M 556.885960873 265.355 L 621.114039127 265.355 L 636.836245866 304.690123207 A 192.353 192.353 0 0 1 686.915643444 325.43368888 L 725.847054803 308.736835521 L 771.263164479 354.152945197 L 754.56631112 393.084356556 A 192.353 192.353 0 0 1 775.309876793 443.163754134 L 814.645 458.885960873 L 814.645 523.114039127 L 775.309876793 538.836245866 A 192.353 192.353 0 0 1 754.56631112 588.915643444 L 771.263164479 627.847054803 L 725.847054803 673.263164479 L 686.915643444 656.56631112 A 192.353 192.353 0 0 1 636.836245866 677.309876793 L 621.114039127 716.645 L 556.885960873 716.645 L 541.163754134 677.309876793 A 192.353 192.353 0 0 1 491.084356556 656.56631112 L 452.152945197 673.263164479 L 406.736835521 627.847054803 L 423.43368888 588.915643444 A 192.353 192.353 0 0 1 402.690123207 538.836245866 L 363.355 523.114039127 L 363.355 458.885960873 L 402.690123207 443.163754134 A 192.353 192.353 0 0 1 423.43368888 393.084356556 L 406.736835521 354.152945197 L 452.152945197 308.736835521 L 491.084356556 325.43368888 A 192.353 192.353 0 0 1 541.163754134 304.690123207 Z M 589 328.24 A 162.76 162.76 0 0 0 589 653.76 A 162.76 162.76 0 0 0 589 328.24" bx:shape="cog 589 491 162.76 192.353 225.645 0.28 8 1@b292c03a"></path>
  <path d="M 125.087 71.447 C 125.087 71.447 121.694 71.493 120.063 71.576 C 118.434 71.658 116.85 71.779 115.272 71.94 C 112.12 72.262 109.124 72.731 106.23 73.343 C 100.452 74.565 95.367 76.291 91.028 78.462 C 82.421 82.764 77.37 88.088 77.588 94.303 L 77.588 155.701 C 77.37 161.916 82.436 167.239 91.051 171.542 C 99.762 175.895 111.649 178.554 125 178.554 C 138.352 178.554 150.239 175.895 158.951 171.542 C 167.565 167.239 172.631 161.916 172.413 155.701 L 172.413 94.303 C 172.631 88.088 167.58 82.764 158.972 78.462 C 150.27 74.11 138.382 71.43 125 71.45 M 163.546 155.701 C 163.388 156.962 162.277 158.802 160.501 160.24 C 158.812 161.609 156.232 163.169 153.006 164.559 C 146.64 167.299 137.089 169.687 125.001 169.687 C 112.913 169.687 103.361 167.301 96.997 164.559 C 93.769 163.169 91.19 161.609 89.502 160.24 C 87.727 158.802 86.614 156.962 86.456 155.701 L 86.456 142.009 L 86.456 139.28 L 88.906 140.474 C 98.597 145.195 111.181 147.856 125.001 147.856 C 138.821 147.856 151.406 145.195 161.096 140.474 L 163.546 139.28 L 163.546 142.009 L 163.546 155.701 M 162.848 129.143 C 154.579 135.112 140.076 138.988 125.001 138.988 C 109.926 138.988 95.424 135.112 87.156 129.143 L 86.456 128.638 L 86.456 127.765 L 86.456 110.512 L 86.456 107.578 L 89 109.026 C 97.813 114.038 110.532 117.157 125.001 117.157 C 139.471 117.157 152.19 114.039 161.002 109.026 L 163.546 107.578 L 163.546 110.512 L 163.546 127.765 M 125.001 108.289 C 112.913 108.289 103.361 105.902 96.997 103.161 C 93.769 101.772 91.19 100.21 89.502 98.841 C 87.727 97.403 86.456 95.564 86.456 94.303 C 86.456 93.043 87.727 91.204 89.502 89.764 C 91.189 88.395 93.769 86.835 96.997 85.445 C 103.362 82.705 112.914 80.317 125.001 80.317 C 137.089 80.317 146.64 82.703 153.006 85.445 C 156.232 86.835 158.812 88.395 160.501 89.764 C 162.277 91.204 163.546 93.043 163.546 94.303 C 163.546 95.564 162.277 97.401 160.501 98.841 C 158.812 100.21 156.232 101.772 153.006 103.161 C 146.64 105.902 137.089 108.289 125.001 108.289 Z" style="fill: rgb(34, 197, 94); stroke-width: 1;"></path>
</svg>